<?xml version="1.0" ?><svg height="32" id="svg17515" version="1.1" viewBox="0 0 32 32.000001" width="32" xmlns="http://www.w3.org/2000/svg" xmlns:cc="http://creativecommons.org/ns#" xmlns:dc="http://purl.org/dc/elements/1.1/" xmlns:inkscape="http://www.inkscape.org/namespaces/inkscape" xmlns:rdf="http://www.w3.org/1999/02/22-rdf-syntax-ns#" xmlns:sodipodi="http://sodipodi.sourceforge.net/DTD/sodipodi-0.dtd" xmlns:svg="http://www.w3.org/2000/svg"><defs id="defs17517"><clipPath clipPathUnits="userSpaceOnUse" id="clipPath32617-9-8-8-9"><circle cx="-64.623535" cy="50.047192" id="path32619-2-3-5-1" r="38.553814" style="fill:#4bb7c0;fill-opacity:1;stroke:none" transform="matrix(9.3443438,0,0,9.3443438,-627.91229,-5859.5225)"/></clipPath><clipPath clipPathUnits="userSpaceOnUse" id="clipPath19550"><circle cx="-64.623535" cy="50.047192" id="circle19552" r="38.553814" style="fill:#4bb7c0;fill-opacity:1;stroke:none" transform="matrix(9.3443438,0,0,9.3443438,-627.91229,-5859.5225)"/></clipPath></defs><g id="layer1" transform="translate(0,-1020.3622)"><g id="g41352" style="display:inline" transform="matrix(0.99993976,0,0,0.99995457,648.70458,121.30505)"><g id="g38503"><path d="m -626.47266,-117.76367 a 0.50004999,0.50004997 0 0 0 -0.46679,0.38672 l -1.62696,6.50781 a 0.50004999,0.50004997 0 0 0 0.40821,0.64258 0.50023209,0.50023208 0 0 0 0.37695,0.37695 0.50004999,0.50004997 0 0 0 0.64258,0.4082 l 6.50976,-1.62695 a 0.50004999,0.50004997 0 0 0 0.25977,-0.82031 0.50004999,0.50004997 0 0 0 -0.5,-0.14844 l -5.85547,1.46289 4.29688,-4.29883 a 0.50005003,0.50005001 0 0 0 0.0117,-0.70703 l -0.002,0 a 0.50005003,0.50005001 0 0 0 -0.7168,0 l -4.30078,4.30078 1.4668,-5.85742 a 0.50004999,0.50004997 0 0 0 -0.13867,-0.48828 0.50004999,0.50004997 0 0 0 -0.36524,-0.13867 z" id="path10042" style="color:#000000;font-style:normal;font-variant:normal;font-weight:normal;font-stretch:normal;font-size:medium;line-height:normal;font-family:sans-serif;text-indent:0;text-align:start;text-decoration:none;text-decoration-line:none;text-decoration-style:solid;text-decoration-color:#000000;letter-spacing:normal;word-spacing:normal;text-transform:none;direction:ltr;writing-mode:lr-tb;baseline-shift:baseline;text-anchor:start;white-space:normal;clip-rule:nonzero;display:inline;overflow:visible;visibility:visible;opacity:1;isolation:auto;mix-blend-mode:normal;color-interpolation:sRGB;color-interpolation-filters:linearRGB;solid-color:#000000;solid-opacity:1;fill:#88b03c;fill-opacity:1;fill-rule:evenodd;stroke:none;stroke-width:1px;stroke-linecap:round;stroke-linejoin:round;stroke-miterlimit:4;stroke-dasharray:none;stroke-dashoffset:0;stroke-opacity:1;color-rendering:auto;image-rendering:auto;shape-rendering:auto;text-rendering:auto;enable-background:accumulate" transform="translate(0,1020.3622)"/><path d="m -645.01189,928.8923 17.68623,-12.78849 a 3.4922589,3.4922587 0 0 0 0.42315,-5.29938 l -1.5461,-1.54609 a 3.4922589,3.4922587 0 0 0 -5.29937,0.42315 l -12.78849,17.68622 a 1.0918805,1.0918804 0 0 0 1.52458,1.52459 z" id="path10037" style="fill:#fa8f48;fill-opacity:1;fill-rule:evenodd;stroke:none;stroke-width:1px;stroke-linecap:butt;stroke-linejoin:miter;stroke-opacity:1"/><path d="m -634.17578,-110.0918 -0.59375,0.82227 1.88672,1.88672 a 0.50005,0.50005 0 1 0 0.70703,-0.70703 z m -0.17969,6.56055 a 0.50005,0.50005 0 0 0 -0.34961,0.85937 l 2.17578,2.17579 0.82032,-0.59375 -2.28907,-2.28907 a 0.50005,0.50005 0 0 0 -0.35742,-0.15234 z m -5.36328,1.10742 -0.59375,0.82031 1.66797,1.667973 a 0.50005,0.50005 0 1 0 0.70703,-0.707033 z m -1.46484,5.718752 a 0.50005,0.50005 0 0 0 -0.34766,0.859375 l 1.08008,1.078125 0.82031,-0.59375 -1.19336,-1.191406 a 0.50005,0.50005 0 0 0 -0.35937,-0.152344 z" id="path10713-5-2" style="color:#000000;font-style:normal;font-variant:normal;font-weight:normal;font-stretch:normal;font-size:medium;line-height:normal;font-family:sans-serif;text-indent:0;text-align:start;text-decoration:none;text-decoration-line:none;text-decoration-style:solid;text-decoration-color:#000000;letter-spacing:normal;word-spacing:normal;text-transform:none;direction:ltr;writing-mode:lr-tb;baseline-shift:baseline;text-anchor:start;white-space:normal;clip-rule:nonzero;display:inline;overflow:visible;visibility:visible;opacity:0.15;isolation:auto;mix-blend-mode:normal;color-interpolation:sRGB;color-interpolation-filters:linearRGB;solid-color:#000000;solid-opacity:1;fill:#3b3c3d;fill-opacity:1;fill-rule:evenodd;stroke:none;stroke-width:1px;stroke-linecap:round;stroke-linejoin:round;stroke-miterlimit:4;stroke-dasharray:none;stroke-dashoffset:0;stroke-opacity:1;color-rendering:auto;image-rendering:auto;shape-rendering:auto;text-rendering:auto;enable-background:accumulate" transform="translate(0,1020.3622)"/><path d="m -628.32422,-111.83789 -0.17187,0.68945 a 3.4922589,3.4922587 0 0 1 0.0469,0.0449 l 1.54688,1.54493 a 3.4922589,3.4922587 0 0 1 0.043,0.0469 l 0.7168,-0.17773 a 3.4922589,3.4922587 0 0 0 -0.22851,-0.25977 l -1.54688,-1.54492 a 3.4922589,3.4922587 0 0 0 -0.40625,-0.34375 z" id="path41338" style="fill:#81a53c;fill-opacity:1;fill-rule:evenodd;stroke:none;stroke-width:1px;stroke-linecap:butt;stroke-linejoin:miter;stroke-opacity:1" transform="translate(0,1020.3622)"/></g></g></g></svg>