<svg width="48" height="48" viewBox="0 0 48 48" fill="none" xmlns="http://www.w3.org/2000/svg">
<path d="M1.50988 27.1901C1.39199 28.57 1.66215 29.9555 2.28988 31.1901C2.28988 31.8401 4.49988 35.5901 6.14988 37.5001C8.26988 40.3201 13.5499 43.7901 16.5399 44.5001C32.6199 49.8601 48.7799 36.9401 47.4099 20.5001C47.3299 19.4301 45.9399 15.9101 43.5599 12.8101C32.8299 -1.17995 10.7399 1.52005 3.66988 17.4001C2.25257 20.4695 1.51573 23.8092 1.50988 27.1901Z" fill="#B5E08C"/>
<path d="M14.23 23.2702C14.23 38.0102 26.99 46.2702 27.81 45.4502C33.5962 44.4927 38.8152 41.4062 42.4418 36.7971C46.0685 32.1879 47.8406 26.3892 47.41 20.5402C47.33 19.4702 45.94 15.9502 43.56 12.8502C41.1973 9.78944 38.1156 7.35926 34.5883 5.77531C31.061 4.19135 27.1973 3.50261 23.34 3.77019C20.4923 6.16032 18.2014 9.14401 16.6278 12.5124C15.0541 15.8807 14.2358 19.5524 14.23 23.2702Z" fill="#9FD367"/>
<path d="M30.4499 44.8702C36.3331 43.1871 41.3267 39.2738 44.3675 33.9636C47.4083 28.6535 48.2559 22.366 46.7299 16.4402C45.949 14.4457 44.8811 12.576 43.5599 10.8902C40.0539 6.35443 35.0107 3.25671 29.3799 2.18018C11.3499 10.9402 11.9399 36.9402 30.4499 44.8702Z" fill="#B5E08C"/>
<path d="M1.51006 27.1899C1.39685 28.5707 1.6704 29.9558 2.30006 31.1899C1.89006 31.5999 8.30006 44.9299 22.8001 45.7199C25.7249 42.9725 27.9581 39.5719 29.317 35.7961C30.6759 32.0204 31.122 27.9766 30.6187 23.9954C30.1155 20.0142 28.6772 16.2087 26.4215 12.8898C24.1657 9.57096 21.1566 6.83305 17.6401 4.8999C12.9493 6.44756 8.86579 9.43452 5.97004 13.4362C3.07429 17.4378 1.51367 22.2504 1.51006 27.1899Z" fill="#9FD367"/>
<path d="M1.51001 25.23C1.51657 27.2561 1.78547 29.2729 2.31001 31.23C3.82717 34.9117 6.25614 38.1469 9.36833 40.631C12.4805 43.1152 16.1736 44.7666 20.1 45.43C20.42 45.43 22.87 43.08 24.35 41.05C26.5255 38.0874 27.9742 34.655 28.5791 31.0295C29.184 27.4041 28.9283 23.6872 27.8324 20.1788C26.7366 16.6704 24.8314 13.4687 22.2706 10.8321C19.7097 8.19542 16.565 6.19767 13.09 5C9.56497 7.07127 6.64215 10.0275 4.61102 13.5758C2.5799 17.1241 1.51094 21.1415 1.51001 25.23Z" fill="#B5E08C"/>
<path d="M30.4501 44.8702C36.3332 43.1871 41.3269 39.2738 44.3677 33.9636C47.4085 28.6535 48.2561 22.366 46.7301 16.4402C45.9492 14.4457 44.8813 12.576 43.5601 10.8902C42.0122 8.8538 40.1326 7.09252 38.0001 5.68018C33.6786 5.78888 29.4568 7.00086 25.7357 9.20094C22.0146 11.401 18.918 14.5161 16.7401 18.2502C15.5695 23.5894 16.2984 29.1697 18.8012 34.0292C21.3039 38.8886 25.4236 42.7226 30.4501 44.8702Z" fill="#84B749"/>
<path d="M20.1001 45.4301C24.7466 46.2085 29.5199 45.5699 33.7983 43.5975C38.0768 41.6251 41.6623 38.4101 44.088 34.3713C46.5137 30.3325 47.6671 25.6569 47.3982 20.9533C47.1292 16.2497 45.4503 11.7361 42.5801 8.00008C21.9001 4.30008 7.00012 28.3901 20.1001 45.4301Z" fill="#9FD367"/>
<path d="M33.2801 39.7801C44.4801 33.6701 42.6701 15.1501 42.5801 14.3701L40.6401 14.5701C40.6401 14.7501 42.4001 32.5701 32.3401 38.0601L33.2801 39.7801Z" fill="#B5E08C"/>
<path d="M20.0999 45.43C25.4203 46.3099 30.8816 45.3468 35.58 42.7C36.1731 37.2739 35.0073 31.8007 32.2545 27.0872C29.5017 22.3738 25.3074 18.6694 20.2899 16.52C17.0278 20.6226 15.2361 25.7009 15.2017 30.9422C15.1672 36.1835 16.892 41.2849 20.0999 45.43Z" fill="#84B749"/>
<path d="M1.51001 25.2298C1.51657 27.2559 1.78547 29.2727 2.31001 31.2298C3.82717 34.9115 6.25614 38.1466 9.36833 40.6308C12.4805 43.115 16.1736 44.7664 20.1 45.4298C20.42 45.4298 22.87 43.0798 24.35 41.0498C26.3474 38.3357 27.7345 35.222 28.4163 31.9218C29.0981 28.6217 29.0584 25.2132 28.3 21.9298C25.1409 18.7656 21.2033 16.4904 16.8844 15.3334C12.5655 14.1764 8.01782 14.1786 3.70001 15.3398C2.267 18.4405 1.51999 21.8139 1.51001 25.2298Z" fill="#84B749"/>
<path d="M33.4499 43.7702C36.6599 25.7702 18.0499 10.7702 0.869907 18.4202C-2.38009 36.6502 16.4799 51.3802 33.4499 43.7702Z" fill="#9FD367"/>
<path d="M9.34009 23.3202C9.34009 23.4802 10.0301 34.8402 18.0101 42.2302C19.5598 43.6169 21.2804 44.7998 23.1301 45.7502C24.6931 45.8226 26.2592 45.722 27.8001 45.4502C22.9335 44.1365 18.7132 41.093 15.9301 36.8902C13.2752 32.7881 11.6808 28.0908 11.2901 23.2202L9.34009 23.3202Z" fill="#B5E08C"/>
<path d="M17.2816 24.7496L12.3918 33.5527L14.1053 34.5045L18.995 25.7013L17.2816 24.7496Z" fill="#B5E08C"/>
<path d="M8.67156 36.0299L8.05127 37.8892L16.8543 40.8261L17.4746 38.9668L8.67156 36.0299Z" fill="#B5E08C"/>
<path d="M22.0642 33.8457L20.1089 43.6221L22.0308 44.0065L23.9861 34.2301L22.0642 33.8457Z" fill="#B5E08C"/>
<path d="M44.8954 24.4767L39.0266 29.3682L40.2815 30.8738L46.1503 25.9823L44.8954 24.4767Z" fill="#B5E08C"/>
<path d="M37.4744 16.7798L35.9692 18.0352L40.8627 23.9023L42.3679 22.6469L37.4744 16.7798Z" fill="#B5E08C"/>
</svg>
