<svg width="256" height="209" viewBox="0 0 256 209" fill="none" xmlns="http://www.w3.org/2000/svg">
<g clip-path="url(#clip0_1894_197)">
<path d="M256 25.4498C246.581 29.627 236.458 32.4503 225.834 33.72C236.678 27.2196 245.006 16.9268 248.927 4.66285C238.78 10.681 227.539 15.0521 215.576 17.4081C205.995 7.20047 192.345 0.821777 177.239 0.821777C148.233 0.821777 124.716 24.3374 124.716 53.3421C124.716 57.4585 125.181 61.4672 126.077 65.311C82.4258 63.1208 43.7257 42.2112 17.8214 10.4357C13.3005 18.1928 10.7104 27.2149 10.7104 36.8401C10.7104 55.0613 19.9835 71.1373 34.0762 80.5555C25.4661 80.283 17.3682 77.9205 10.2863 73.9867C10.2825 74.2058 10.2825 74.4259 10.2825 74.6469C10.2825 100.094 28.3867 121.322 52.4136 126.147C48.006 127.347 43.3662 127.988 38.5756 127.988C35.1915 127.988 31.901 127.66 28.6948 127.046C35.3778 147.913 54.7742 163.097 77.757 163.522C59.782 177.608 37.1354 186.004 12.5289 186.004C8.28987 186.004 4.10888 185.756 0 185.271C23.2431 200.173 50.8507 208.867 80.5109 208.867C177.117 208.867 229.944 128.837 229.944 59.4324C229.944 57.1551 229.893 54.8899 229.792 52.6379C240.053 45.2329 248.958 35.9823 256 25.4498Z" fill="#CCCCCC"/>
</g>
<defs>
<clipPath id="clip0_1894_197">
<rect width="256" height="209" fill="white"/>
</clipPath>
</defs>
</svg>
